<svg xmlns="http://www.w3.org/2000/svg" width="15.5" height="15.5" viewBox="0 0 15.5 15.5">
  <g id="linkedin" transform="translate(0)">
    <path id="Path_1650" data-name="Path 1650" d="M18.5,18.183h0V12.5c0-2.781-.6-4.923-3.85-4.923a3.375,3.375,0,0,0-3.04,1.671h-.045V7.834H8.489V18.182H11.7V13.058c0-1.349.256-2.654,1.927-2.654,1.646,0,1.671,1.54,1.671,2.74v5.038Z" transform="translate(-3.006 -2.682)" fill="#896FFF" />
    <path id="Path_1651" data-name="Path 1651" d="M.4,7.977H3.61V18.325H.4Z" transform="translate(-0.14 -2.825)" fill="#896FFF"  />
    <path id="Path_1652" data-name="Path 1652" d="M1.861,0A1.87,1.87,0,1,0,3.723,1.861,1.862,1.862,0,0,0,1.861,0Z" fill="#896FFF"  transform="translate(0 0)"/>
  </g>
</svg>
