<svg xmlns="http://www.w3.org/2000/svg" width="19.075" height="15.499" viewBox="0 0 19.075 15.499">
  <path id="twitter" d="M19.075,49.835a8.153,8.153,0,0,1-2.253.618,3.889,3.889,0,0,0,1.72-2.161,7.815,7.815,0,0,1-2.48.947A3.91,3.91,0,0,0,9.3,51.912a4.027,4.027,0,0,0,.091.892,11.069,11.069,0,0,1-8.061-4.09,3.912,3.912,0,0,0,1.2,5.227,3.862,3.862,0,0,1-1.767-.482V53.5A3.929,3.929,0,0,0,3.9,57.343a3.9,3.9,0,0,1-1.025.129,3.458,3.458,0,0,1-.74-.067A3.948,3.948,0,0,0,5.785,60.13,7.858,7.858,0,0,1,.936,61.8,7.323,7.323,0,0,1,0,61.744,11.009,11.009,0,0,0,6,63.5,11.054,11.054,0,0,0,17.13,52.371c0-.173-.006-.34-.014-.505A7.8,7.8,0,0,0,19.075,49.835Z" transform="translate(0 -48)" fill="#896FFF"/>
</svg>
