<svg xmlns="http://www.w3.org/2000/svg" width="18.314" height="18.054" viewBox="0 0 18.314 18.054">
  <g id="Group_740" data-name="Group 740" transform="translate(-637.467 -415.365)">
    <g id="Group_738" data-name="Group 738" transform="translate(637.467 426.016)">
      <path id="Path_1973" data-name="Path 1973" d="M655.262,504.769H637.987l-.52-.52a6.892,6.892,0,0,1,6.884-6.884H648.9a6.892,6.892,0,0,1,6.884,6.884Zm-16.733-1.039h16.19A5.853,5.853,0,0,0,648.9,498.4h-4.546A5.853,5.853,0,0,0,638.529,503.729Z" transform="translate(-637.467 -497.365)"/>
    </g>
    <g id="Group_739" data-name="Group 739" transform="translate(641.948 415.365)">
      <path id="Path_1974" data-name="Path 1974" d="M676.708,424.847a4.741,4.741,0,1,1,4.741-4.741A4.746,4.746,0,0,1,676.708,424.847Zm0-8.443a3.7,3.7,0,1,0,3.7,3.7A3.706,3.706,0,0,0,676.708,416.4Z" transform="translate(-671.967 -415.365)"/>
    </g>
  </g>
</svg>
